<svg xmlns:rdf="http://www.w3.org/1999/02/22-rdf-syntax-ns#" xmlns="http://www.w3.org/2000/svg" enable-background="new 0 0 94.398 54.766" xml:space="preserve" preserveAspectRatio="xMinYMin meet" viewBox="0 0 94.398 54.766" height="100%" width="100%" version="1.1" y="0px" x="0px" xmlns:cc="http://creativecommons.org/ns#" xmlns:dc="http://purl.org/dc/elements/1.1/"><metadata><rdf:RDF><cc:Work rdf:about=""><dc:format>image/svg+xml</dc:format><dc:type rdf:resource="http://purl.org/dc/dcmitype/StillImage"/><dc:title/></cc:Work></rdf:RDF></metadata><path fill="#FFF" d="M94.392,3.926c-0.002-0.153-0.024-0.308-0.046-0.461-0.015-0.108-0.021-0.221-0.045-0.326-0.028-0.131-0.077-0.257-0.119-0.385-0.04-0.123-0.074-0.248-0.126-0.364-0.046-0.104-0.109-0.201-0.164-0.303-0.072-0.132-0.142-0.266-0.229-0.388-0.016-0.021-0.023-0.045-0.039-0.066-0.056-0.075-0.124-0.134-0.184-0.204-0.094-0.11-0.186-0.223-0.291-0.321-0.093-0.089-0.192-0.165-0.294-0.243-0.104-0.081-0.204-0.162-0.314-0.233-0.109-0.068-0.226-0.126-0.339-0.184-0.116-0.06-0.231-0.119-0.354-0.167-0.121-0.047-0.246-0.08-0.371-0.115-0.123-0.034-0.245-0.071-0.373-0.094-0.144-0.026-0.288-0.034-0.433-0.044-0.092-0.007-0.179-0.028-0.272-0.028h-86.399c-0.092,0-0.177,0.021-0.267,0.027-0.146,0.01-0.294,0.018-0.438,0.044-0.126,0.023-0.244,0.059-0.365,0.092-0.129,0.036-0.257,0.07-0.381,0.118-0.118,0.047-0.23,0.104-0.342,0.161-0.119,0.06-0.237,0.118-0.351,0.19-0.107,0.069-0.205,0.148-0.304,0.225-0.104,0.081-0.208,0.16-0.305,0.252-0.103,0.099-0.193,0.208-0.285,0.317-0.061,0.071-0.131,0.131-0.187,0.207-0.015,0.021-0.024,0.044-0.039,0.066-0.087,0.122-0.155,0.255-0.228,0.387-0.056,0.102-0.118,0.199-0.164,0.303-0.052,0.117-0.085,0.242-0.126,0.364-0.042,0.128-0.09,0.255-0.119,0.386-0.023,0.105-0.03,0.217-0.045,0.326-0.021,0.153-0.043,0.306-0.046,0.461-0.001,0.025-0.008,0.049-0.008,0.074v46.766c0,2.209,1.791,4,4,4h86.398c2.209,0,4-1.791,4-4v-46.766c0.001-0.025-0.005-0.049-0.006-0.074zm-16.204,4.074l-30.989,22.744-30.988-22.744h61.977zm-70.188,38.765v-34.868l36.832,27.034c0.705,0.516,1.536,0.774,2.367,0.774,0.83,0,1.661-0.26,2.366-0.774l36.833-27.034v34.868h-78.398z"/></svg>
