<svg xmlns:rdf="http://www.w3.org/1999/02/22-rdf-syntax-ns#" xmlns="http://www.w3.org/2000/svg" height="20" width="23.315" version="1.1" xmlns:cc="http://creativecommons.org/ns#" xmlns:dc="http://purl.org/dc/elements/1.1/">
 <metadata>
  <rdf:RDF>
   <cc:Work rdf:about="">
    <dc:format>image/svg+xml</dc:format>
    <dc:type rdf:resource="http://purl.org/dc/dcmitype/StillImage"/>
    <dc:title/>
   </cc:Work>
  </rdf:RDF>
 </metadata>
 <path fill="#679a00" d="m21.65,6.6614q0.68956,0,1.1775,0.4879,0.4879,0.4879,0.4879,1.1775,0,0.68956-0.4879,1.1775-0.4879,0.48789-1.1775,0.48789v4.9961q0,0.67655-0.4944,1.171-0.4944,0.4944-1.171,0.4944-5.4254-4.5147-10.565-4.944-0.75462,0.24721-1.184,0.8587-0.42935,0.6115-0.40333,1.3076,0.026,0.69607,0.52043,1.2035-0.26022,0.42935-0.29925,0.85219-0.039,0.42285,0.0781,0.75462,0.11709,0.33177,0.43585,0.71558,0.31876,0.38382,0.62451,0.65053,0.30575,0.26672,0.80015,0.65704-0.3775,0.753-1.4509,1.078t-2.1923,0.15q-1.1189-0.176-1.7174-0.722-0.0911-0.3-0.3838-1.139t-0.4163-1.229q-0.1236-0.391-0.2993-1.158-0.1756-0.768-0.1951-1.314-0.0195-0.54645,0.0455-1.2816,0.065-0.7351,0.28623-1.4377h-1.5873q-0.8587,0.001-1.4702-0.611-0.6115-0.611-0.6115-1.4702v-2.498q0-0.85867,0.6115-1.4702,0.6115-0.6115,1.4702-0.6115h6.2451q5.6596,0,11.658-4.9961,0.67655,0,1.171,0.4944,0.4944,0.49441,0.4944,1.171v4.9961zm-1.6654,7.8584v-12.412q-5.1262,3.9292-9.9922,4.4626v3.5129q4.905,0.54644,9.9922,4.4366z"/>
</svg>
