<svg xmlns="http://www.w3.org/2000/svg" height="18" width="18" version="1.1" viewBox="0 0 24 24">
 <path d="m22.36 4.4649c0.38812-0.38882 0.97452-0.89361 1.6395-1.4359-0.869-1.1333-1.88-2.1518-3.007-3.029-0.50221 0.63294-0.97264 1.1887-1.3458 1.5624-3.2171 3.2166-6.244 0.37897-7.3163 1.4513l-4.2892 4.2888 0.536 0.5361-8.5778 6.4334c1.4296 1.7873 1.0723 2.1445 4.2889 5.3611 3.2168 3.2173 3.5741 2.86 5.3611 4.2891l6.4334-8.5774 0.53638 0.53592 4.2888-4.2891c1.0719-1.0724-1.7657-3.9099 1.4516-7.1265zm-12.978 4.1778 0.26794 0.26817-1.6082 1.6082 2.1443-1.072 0.53615 0.53614-1.4744 2.8144 2.0106-2.2785 0.53634 0.53615-2.9489 4.0209 3.4848-3.4848 1.0722 1.0722-2.5467 2.5467 3.0826-2.0106 0.53638 0.53614-1.6086 2.6805 2.1445-2.1445 0.26845 0.26845-4.9595 6.5676c-0.53615-0.5368 0-2.1445 0-3.217-0.13392-0.93851-2.1443 2.1443-3.2166 1.0725-1.0723-1.0725 0.13397-1.2067 0.13397-2.2785 0-1.0728-1.3402-0.26845-2.4125-0.26845s-0.53615-0.53591-0.53615-1.6082c0-1.0722-2.6807-0.26793-2.6807-0.26793l7.7759-5.8973z" fill="#9868cc"/>
</svg>
