<svg xmlns="http://www.w3.org/2000/svg"  width="18" height="18" viewBox="0 0 24 22.33" version="1.1" y="0px" x="0px">
<g transform="translate(-244 -227.02)" fill="#9868cc">
 <path d="m256 241.08c3.8767 0 7.0304-3.1537 7.0304-7.0307 0.00005-3.8762-3.1537-7.0302-7.0304-7.0302s-7.0303 3.154-7.0303 7.0302c0.00004 3.8769 3.1536 7.0307 7.0303 7.0307zm0-11.946c2.7105 0 4.9159 2.2051 4.9159 4.9159 0 2.711-2.2054 4.9161-4.9159 4.9161s-4.916-2.2051-4.916-4.9161c0.00023-2.7108 2.2058-4.9159 4.916-4.9159z"/>
 <path d="m259.25 241.73c-0.34646-0.10997-0.72535-0.0346-1.0026 0.20077l-2.2485 1.9011-2.2482-1.9008c-0.27722-0.23536-0.65677-0.31079-1.0025-0.20082-1.4609 0.46337-8.7491 2.9586-8.7491 6.5664 0 0.58383 0.4734 1.0573 1.0573 1.0573h21.886c0.58388 0 1.0573-0.47344 1.0573-1.0573-0.00005-3.6078-7.2883-6.103-8.7493-6.5666zm-12.564 5.5093c1.1614-1.1951 3.8778-2.5218 6.1524-3.3112l2.4779 2.0959c0.3939 0.33399 0.97159 0.33399 1.3655 0l2.4779-2.0959c2.2745 0.78934 4.9915 2.1161 6.1526 3.3112h-18.626z"/>
</g></svg>
