<svg xmlns="http://www.w3.org/2000/svg" version="1.1" viewBox="0 0 22.661 24" height="18" width="18">
 <path d="m20.768 8.928q0.96 0.352 1.488 1.312t0.368 1.984l-0.896 7.968q-0.16 0.992-0.816 1.792t-1.488 1.12q-0.128 0.032-0.656 0.24t-0.752 0.272-0.752 0.192-1.152 0.16-1.456 0.032q-2.112 0-4.448-0.656t-3.328-1.424q-0.032-0.032-0.08-0.064t-0.096-0.096-0.08-0.096q-1.184 1.024-2.624 1.024-1.664 0-2.832-1.168t-1.168-2.832v-8q0-1.664 1.168-2.832t2.832-1.168q1.952 0 3.168 1.6 1.12-1.12 1.648-2.16t0.528-2.768q0-1.376 0.976-2.368t2.352-0.992 2.352 0.992 0.976 2.368q0 2.4-0.416 4.8 4.352 0.448 5.184 0.768zm-16.768 11.072q0.544 0 0.944-0.384t0.4-0.928v-8q0-0.544-0.4-0.944t-0.944-0.4-0.944 0.4-0.4 0.944v8q0 0.544 0.4 0.928t0.944 0.384zm15.104-0.192 0.896-7.968q0.064-0.32-0.16-0.416-0.384-0.096-2.752-0.384t-3.04-0.352l-1.76 0.256 0.416-1.888q0.64-2.976 0.64-5.696 0-0.256-0.208-0.464t-0.464-0.208-0.464 0.208-0.208 0.464q0 1.376-0.272 2.496t-0.832 2-0.928 1.312-1.04 1.104q-0.928 0.928-0.928 1.76v6.656q0 0.768 0.48 1.12 0.608 0.448 2.528 0.992t3.648 0.544q0.672 0 1.168-0.032t0.896-0.112 0.592-0.144 0.592-0.224 0.592-0.224q0.16-0.064 0.368-0.32t0.24-0.48z" fill="#9868cc"/>
</svg>
